<?xml version="1.0" encoding="UTF-8"?>
<svg width="94px" height="104px" viewBox="0 0 94 104" version="1.1" xmlns="http://www.w3.org/2000/svg" xmlns:xlink="http://www.w3.org/1999/xlink">
    <!-- Generator: sketchtool 55.2 (78181) - https://sketchapp.com -->
    <title>B0B031FC-C44E-4748-B79C-5EAC6D6BE3AC</title>
    <desc>Created with sketchtool.</desc>
    <defs>
        <filter x="-60.9%" y="-51.3%" width="221.9%" height="202.6%" filterUnits="objectBoundingBox" id="filter-1">
            <feOffset dx="0" dy="5" in="SourceAlpha" result="shadowOffsetOuter1"></feOffset>
            <feGaussianBlur stdDeviation="7.5" in="shadowOffsetOuter1" result="shadowBlurOuter1"></feGaussianBlur>
            <feColorMatrix values="0 0 0 0 0.929093071   0 0 0 0 0.35156117   0 0 0 0 0.412354002  0 0 0 0.444493007 0" type="matrix" in="shadowBlurOuter1" result="shadowMatrixOuter1"></feColorMatrix>
            <feMerge>
                <feMergeNode in="shadowMatrixOuter1"></feMergeNode>
                <feMergeNode in="SourceGraphic"></feMergeNode>
            </feMerge>
        </filter>
        <linearGradient x1="50%" y1="100%" x2="50%" y2="3.061617e-15%" id="linearGradient-2">
            <stop stop-color="#C861AD" offset="0%"></stop>
            <stop stop-color="#FF7987" offset="100%"></stop>
        </linearGradient>
        <path d="M63.9700707,12.7291519 C63.9466458,11.7233554 63.2154532,10.855767 62.194168,10.7182804 C57.4337823,10.0739275 52.7388609,8.95290604 48.136489,7.29162583 C43.5558687,5.63828151 38.4876125,3.33027798 33.0211324,0.290523743 C32.3270642,-0.095655111 31.6741987,-0.098025571 30.9808625,0.290523743 C25.5522388,3.32873202 20.5202703,5.63189158 15.9034669,7.29162583 C11.2996309,8.94661917 6.60701017,10.074752 1.88448086,10.7182804 C0.863091015,10.857313 0.146434459,11.7233554 0.0327607863,12.7291519 C-0.420260693,31.8336166 3.82571764,47.4652544 12.7297021,59.6162324 C17.5803366,66.2351751 23.6506362,71.6075651 30.9808625,75.7040291 C31.5475577,76.1140157 32.4360319,76.0829935 33.0969497,75.7040291 C40.3716464,71.539234 46.4338937,66.205802 51.2733385,59.6162324 C60.1891401,47.4731903 64.4005039,31.8343381 63.9700707,12.7291519 Z" id="path-3"></path>
    </defs>
    <g id="Website" stroke="none" stroke-width="1" fill="none" fill-rule="evenodd">
        <g id="Homepage_full" transform="translate(-167.000000, -1495.000000)">
            <g id="02" transform="translate(0.000000, 1024.000000)">
                <g id="content" transform="translate(145.000000, 276.000000)">
                    <g id="ceontent" transform="translate(1.000000, 180.000000)">
                        <g id="02-icon-free" filter="url(#filter-1)" transform="translate(36.000000, 24.000000)">
                            <mask id="mask-4" fill="white">
                                <use xlink:href="#path-3"></use>
                            </mask>
                            <use id="Path" fill="url(#linearGradient-2)" xlink:href="#path-3"></use>
                            <rect id="Rectangle" fill="#000000" opacity="0.0639415923" mask="url(#mask-4)" x="32" y="-3.5625" width="41.4814815" height="91.4375"></rect>
                            <g id="Group" mask="url(#mask-4)">
                                <g transform="translate(17.777778, 17.812500)">
                                    <polygon id="Rectangle" fill="#FFBB7E" fill-rule="evenodd" transform="translate(7.703704, 32.062500) rotate(20.000000) translate(-7.703704, -32.062500) " points="2.95704405 24.3425342 12.4406918 24.348486 12.4503634 39.7824658 7.70556362 35.030573 2.96671562 39.776514"></polygon>
                                    <polygon id="Rectangle-Copy-2" fill="#FFA17E" fill-rule="evenodd" transform="translate(21.925926, 32.062500) scale(-1, 1) rotate(20.000000) translate(-21.925926, -32.062500) " points="17.1792663 24.3425342 26.662914 24.348486 26.6725856 39.7824658 21.9277858 35.030573 17.1889378 39.776514"></polygon>
                                    <path d="M22.8211831,10.2570766 L18.2518517,9.8014268 C17.9638054,9.77381166 17.7149072,9.58050566 17.597201,9.29054667 L15.960574,5.10685267 C15.6987137,4.41647413 14.7689787,4.41647413 14.5071184,5.10685267 L12.8835845,9.29054667 C12.7788404,9.58050566 12.5169801,9.77381166 12.2289338,9.8014268 L7.65947145,10.2570766 C6.97863465,10.3261145 6.70368133,11.2236066 7.21430893,11.7068716 L10.6577719,14.8964205 C10.8803532,15.103534 10.9720043,15.4073006 10.9065392,15.7110672 L9.87219102,20.1845821 C9.71507484,20.8889063 10.4351907,21.4686862 11.0374694,21.0960198 L14.8475368,18.7347871 C15.0963041,18.5829039 15.3974435,18.5829039 15.6462107,18.7347871 L19.4564091,21.0960198 C20.0586878,21.4686862 20.7788037,20.9027138 20.6215565,20.1845821 L19.6003014,15.7110672 C19.5348363,15.4073006 19.6264874,15.103534 19.8490686,14.8964205 L23.2925317,11.7068716 C23.7900662,11.2236066 23.5020199,10.3261145 22.8211831,10.2570766 Z" id="Path" fill="#FFD066" fill-rule="nonzero"></path>
                                    <path d="M14.8148148,27.3125 C22.3422514,27.3125 28.4444444,21.1983886 28.4444444,13.65625 C28.4444444,6.11411139 22.3422514,0 14.8148148,0 C7.28737822,0 1.18518519,6.11411139 1.18518519,13.65625 C1.18518519,21.1983886 7.28737822,27.3125 14.8148148,27.3125 Z M14.8148148,23.75 C9.25105734,23.75 4.74074074,19.2308742 4.74074074,13.65625 C4.74074074,8.08162581 9.25105734,3.5625 14.8148148,3.5625 C20.3785723,3.5625 24.8888889,8.08162581 24.8888889,13.65625 C24.8888889,19.2308742 20.3785723,23.75 14.8148148,23.75 Z" id="Oval" fill="#FFFFFF" fill-rule="nonzero"></path>
                                </g>
                            </g>
                        </g>
                    </g>
                </g>
            </g>
        </g>
    </g>
</svg>