<?xml version="1.0" encoding="UTF-8"?>
<svg width="22px" height="22px" viewBox="0 0 22 22" version="1.1" xmlns="http://www.w3.org/2000/svg" xmlns:xlink="http://www.w3.org/1999/xlink">
    <!-- Generator: sketchtool 55.2 (78181) - https://sketchapp.com -->
    <title>39BE123F-B6FB-4D88-BB78-C400C3B60183</title>
    <desc>Created with sketchtool.</desc>
    <g id="Website" stroke="none" stroke-width="1" fill="none" fill-rule="evenodd">
        <g id="Partners" transform="translate(-809.000000, -704.000000)" stroke="#FFFFFF" stroke-width="1.4">
            <g id="01">
                <g id="Content" transform="translate(143.000000, 166.000000)">
                    <g id="Group" transform="translate(3.000000, 460.000000)">
                        <g id="Group-15" transform="translate(599.000000, 54.000000)">
                            <g id="mobile" transform="translate(60.000000, 20.000000)">
                                <g id="Icon-Mobile">
                                    <g id="call-answer" transform="translate(5.000000, 5.000000)">
                                        <path d="M19.5516365,15.8190362 L16.4629485,12.7230042 C15.847739,12.1088771 14.8289403,12.1275359 14.1922988,12.7658503 C13.021522,13.7313459 12.4004709,14.1940336 12.3291456,14.1539134 C11.3464883,13.6082018 10.0015544,12.8602384 8.58629119,11.4407318 C7.16683348,10.0182306 6.41987144,8.6681761 5.87372727,7.68265879 C5.8353066,7.61305311 6.29878698,6.99268725 7.26416838,5.82156121 C7.90178667,5.18232542 7.91936901,4.16150617 7.30559604,3.54559384 L4.216908,0.44921629 C3.60313504,-0.165832203 2.5838766,-0.147173428 1.94625831,0.492062364 C0.690825799,1.27241923 0.063109544,2.42425302 0.063109544,3.94756374 C0.063109544,7.36077329 1.20033052,10.4333883 5.39343067,14.6360469 C11.1895688,20.444915 15.8604949,20.0060883 16.0620022,19.9846652 C19.2414551,19.9846652 20.1651222,16.4359276 19.5516365,15.8190362 Z" id="Path"></path>
                                    </g>
                                </g>
                            </g>
                        </g>
                    </g>
                </g>
            </g>
        </g>
    </g>
</svg>