<?xml version="1.0" encoding="UTF-8"?>
<svg width="24px" height="22px" viewBox="0 0 24 22" version="1.1" xmlns="http://www.w3.org/2000/svg" xmlns:xlink="http://www.w3.org/1999/xlink">
    <!-- Generator: sketchtool 55.2 (78181) - https://sketchapp.com -->
    <title>058124B9-567C-4205-98D1-856620EEAEC7</title>
    <desc>Created with sketchtool.</desc>
    <g id="Website" stroke="none" stroke-width="1" fill="none" fill-rule="evenodd">
        <g id="Homepage_full" transform="translate(-628.000000, -7506.000000)" fill="#4A494B" fill-rule="nonzero">
            <g id="08" transform="translate(0.000000, 7168.000000)">
                <g id="Group-9" transform="translate(145.000000, 204.000000)">
                    <g id="Group-15" transform="translate(0.000000, 110.000000)">
                        <g id="wechat" transform="translate(480.000000, 20.000000)">
                            <g id="Icon-wechat">
                                <g id="wechat" transform="translate(3.000000, 4.000000)">
                                    <path d="M17.9990103,7.98323363 C21.4187239,8.56679657 24,11.1064702 24,14.1428571 C24,15.9421429 23.061,17.655 21.4575,18.843 L22.422,20.8622857 C22.563,21.1577143 22.5135,21.5128571 22.296,21.7517143 C22.152,21.9135714 21.9525,22 21.75,22 C21.651,22 21.549,21.978 21.4545,21.9371429 L17.856,20.3201429 C13.7489576,20.9741837 10.1565972,18.7742326 9.23083301,15.7038697 C8.10884601,15.7179128 6.99869495,15.5810023 5.9475,15.2475714 L3.2955,16.4371429 C3.1995,16.4795714 3.099,16.5 3,16.5 C2.7975,16.5 2.598,16.4135714 2.454,16.2532857 C2.238,16.0144286 2.1885,15.6577143 2.3295,15.3638571 L3.0855,13.7798571 C1.116,12.2712857 0,10.1467143 0,7.85714286 C0,3.52471429 4.0365,0 9,0 C13.9635,0 18,3.52471429 18,7.85714286 C18,7.89944502 17.9996796,7.94146314 17.9990103,7.98323363 Z M17.2037819,9.46080408 C17.1598799,9.46124331 17.1152111,9.45763188 17.0701356,9.44967433 C16.8824479,9.43571239 16.6922672,9.42857143 16.5,9.42857143 C13.191,9.42857143 10.5,11.5437143 10.5,14.1428571 C10.5,16.742 13.191,18.8571429 16.5,18.8571429 C16.929,18.8571429 17.3625,18.8178571 17.823,18.733 C17.865,18.7251429 17.907,18.722 17.9505,18.722 C18.051,18.722 18.153,18.744 18.246,18.7848571 L20.163,19.6475714 L19.8135,18.9121429 C19.6365,18.5397143 19.767,18.0871429 20.112,17.8797143 C21.63,16.9698571 22.5,15.6074286 22.5,14.1428571 C22.5,11.7306968 20.1822544,9.73540328 17.2037819,9.46080408 Z M16.5,7.85714286 C16.5,4.39057143 13.1355,1.57142857 9,1.57142857 C4.8645,1.57142857 1.5,4.39057143 1.5,7.85714286 C1.5,9.80414286 2.574,11.6222857 4.4475,12.848 C4.776,13.0617143 4.8945,13.5032857 4.722,13.8647143 L4.587,14.1491429 L5.6145,13.6871429 C5.784,13.6132857 5.973,13.6038571 6.147,13.6635714 C7.05622623,13.9814946 8.02021631,14.1193895 9.00001582,14.1298374 C9.00842743,10.6692297 12.3696786,7.85714286 16.5,7.85714286 Z M6.03,4.71428571 C6.444,4.71428571 6.78,5.06628571 6.78,5.5 C6.78,5.93371429 6.444,6.28571429 6.03,6.28571429 C5.616,6.28571429 5.2725,5.93371429 5.2725,5.5 C5.2725,5.06628571 5.601,4.71428571 6.015,4.71428571 L6.03,4.71428571 Z M12.03,4.71428571 C12.444,4.71428571 12.78,5.06628571 12.78,5.5 C12.78,5.93371429 12.444,6.28571429 12.03,6.28571429 C11.616,6.28571429 11.2725,5.93371429 11.2725,5.5 C11.2725,5.06628571 11.601,4.71428571 12.015,4.71428571 L12.03,4.71428571 Z M14.28,11.7857143 C14.694,11.7857143 15.03,12.1377143 15.03,12.5714286 C15.03,13.0051429 14.694,13.3571429 14.28,13.3571429 C13.866,13.3571429 13.5225,13.0051429 13.5225,12.5714286 C13.5225,12.1377143 13.8495,11.7857143 14.265,11.7857143 L14.28,11.7857143 Z M18.78,11.7857143 C19.194,11.7857143 19.53,12.1377143 19.53,12.5714286 C19.53,13.0051429 19.194,13.3571429 18.78,13.3571429 C18.3675,13.3571429 18.0225,13.0051429 18.0225,12.5714286 C18.0225,12.1377143 18.351,11.7857143 18.765,11.7857143 L18.78,11.7857143 Z" id="Combined-Shape"></path>
                                </g>
                            </g>
                        </g>
                    </g>
                </g>
            </g>
        </g>
    </g>
</svg>