<?xml version="1.0" encoding="UTF-8"?>
<svg width="21px" height="21px" viewBox="0 0 21 21" version="1.1" xmlns="http://www.w3.org/2000/svg" xmlns:xlink="http://www.w3.org/1999/xlink">
    <!-- Generator: sketchtool 55.2 (78181) - https://sketchapp.com -->
    <title>0AF4CFC1-17EB-4481-A35A-B7E1027C30C5</title>
    <desc>Created with sketchtool.</desc>
    <g id="Website" stroke="none" stroke-width="1" fill="none" fill-rule="evenodd">
        <g id="Homepage_full" transform="translate(-845.000000, -7507.000000)" fill="#4A494B" fill-rule="nonzero">
            <g id="08" transform="translate(0.000000, 7168.000000)">
                <g id="Group-9" transform="translate(145.000000, 204.000000)">
                    <g id="Group-15" transform="translate(0.000000, 110.000000)">
                        <g id="Icon/whatsapp-2" transform="translate(695.000000, 20.000000)">
                            <g id="Icon-whatsapp">
                                <g id="whatsapp-logo" transform="translate(5.000000, 5.000000)">
                                    <path d="M21,10.2295667 C21,15.8792667 16.3849,20.4591333 10.6908667,20.4591333 C8.88323333,20.4591333 7.18503333,19.9971333 5.70756667,19.1863 L0,21 L1.86083333,15.5115333 C0.922133333,13.9701333 0.3815,12.1622667 0.3815,10.2295667 C0.3815,4.57986667 4.99706667,0 10.6908667,0 C16.3853667,0 21,4.57986667 21,10.2295667 Z M10.6908667,1.62913333 C5.91126667,1.62913333 2.02346667,5.4873 2.02346667,10.2295667 C2.02346667,12.1114 2.6369,13.8541667 3.67453333,15.2719 L2.59163333,18.466 L5.92246667,17.4073667 C7.29096667,18.3059333 8.93036667,18.83 10.6911,18.83 C15.47,18.83 19.3585,14.9723 19.3585,10.2300333 C19.3585,5.48776667 15.4702333,1.62913333 10.6908667,1.62913333 Z M15.8967667,12.5855333 C15.8330667,12.4812333 15.6648333,12.4182333 15.4123667,12.2929333 C15.1594333,12.1676333 13.9167,11.5607333 13.6857,11.4774333 C13.454,11.3939 13.2850667,11.3519 13.1168333,11.6027333 C12.9486,11.8538 12.4642,12.4182333 12.3165,12.5855333 C12.1690333,12.7533 12.0218,12.7743 11.7688667,12.6487667 C11.5164,12.5234667 10.7023,12.2584 9.737,11.4044 C8.9859,10.7398667 8.47863333,9.91946667 8.33116667,9.66816667 C8.18393333,9.41733333 8.31576667,9.28176667 8.442,9.15693333 C8.55586667,9.04446667 8.69493333,8.8641 8.82116667,8.7178 C8.94786667,8.57126667 8.98986667,8.46696667 9.07363333,8.29943333 C9.15833333,8.13213333 9.1161,7.98583333 9.05263333,7.86006667 C8.98963333,7.73476667 8.48376667,6.5009 8.2733,5.99876667 C8.06283333,5.4971 7.8526,5.58063333 7.7049,5.58063333 C7.55766667,5.58063333 7.38896667,5.55963333 7.2205,5.55963333 C7.05203333,5.55963333 6.7781,5.6224 6.5464,5.87323333 C6.31493333,6.1243 5.6623,6.73096667 5.6623,7.9646 C5.6623,9.19846667 6.5674,10.3905667 6.6941,10.5576333 C6.82033333,10.7247 8.44176667,13.3389667 11.0107667,14.343 C13.58,15.3465667 13.58,15.0117333 14.0434,14.9697333 C14.5063333,14.9279667 15.5381333,14.3633 15.7495333,13.7781 C15.9595333,13.1919667 15.9595333,12.6900667 15.8967667,12.5855333 Z" id="WhatsApp"></path>
                                </g>
                            </g>
                        </g>
                    </g>
                </g>
            </g>
        </g>
    </g>
</svg>