<?xml version="1.0" encoding="UTF-8"?>
<svg width="38px" height="38px" viewBox="0 0 38 38" version="1.1" xmlns="http://www.w3.org/2000/svg" xmlns:xlink="http://www.w3.org/1999/xlink">
    <!-- Generator: sketchtool 55.2 (78181) - https://sketchapp.com -->
    <title>1352FF3A-52BA-4438-8FD0-6C0C2FDB3F83</title>
    <desc>Created with sketchtool.</desc>
    <g id="Website" stroke="none" stroke-width="1" fill="none" fill-rule="evenodd">
        <g id="Homepage_full" transform="translate(-741.000000, -4742.000000)">
            <g id="05" transform="translate(0.000000, 4096.000000)">
                <g id="Group-5" transform="translate(146.000000, 237.000000)">
                    <g id="Group-11" transform="translate(0.000000, 227.000000)">
                        <g id="5-icon-StartBanking" transform="translate(595.000000, 182.000000)">
                            <circle id="Oval" stroke="#4A494B" cx="19" cy="19" r="18.5"></circle>
                            <circle id="Oval-Copy-15" stroke="#4A494B" cx="19" cy="19" r="14.5"></circle>
                            <path d="M24,22.1080508 C24,23.1250051 23.625988,23.9766915 22.8779528,24.6631356 C22.1299175,25.3495797 21.1391138,25.7627112 19.9055118,25.9025424 L19.9055118,28 L18.5275591,28 L18.5275591,25.9216102 C17.6220427,25.8707625 16.7854369,25.699154 16.0177165,25.4067797 C15.2499962,25.1144053 14.5774307,24.7076297 14,24.1864407 L14.6102362,22.9851695 C15.2401606,23.5063585 15.8733564,23.8940665 16.5098425,24.1483051 C17.1463286,24.4025436 17.8385789,24.5487286 18.5866142,24.5868644 L18.5866142,19.7436441 C17.6810978,19.5148294 16.9330738,19.2733064 16.3425197,19.0190678 C15.7519656,18.7648292 15.2565637,18.3930109 14.8562992,17.9036017 C14.4560347,17.4141925 14.2559055,16.7690718 14.2559055,15.9682203 C14.2559055,15.2690643 14.4363499,14.6398333 14.7972441,14.0805085 C15.1581383,13.5211836 15.6601018,13.066739 16.3031496,12.717161 C16.9461974,12.367583 17.6876598,12.1546614 18.5275591,12.0783898 L18.5275591,10 L19.9055118,10 L19.9055118,12.0974576 C20.6666705,12.1610173 21.3917288,12.3389816 22.0807087,12.6313559 C22.7696885,12.9237303 23.356953,13.3050824 23.8425197,13.7754237 L23.2322835,14.9766949 C22.2742734,14.08686 21.1456758,13.5720346 19.8464567,13.4322034 L19.8464567,18.5614407 C20.7126028,18.7648315 21.4310995,18.9872869 22.0019685,19.2288136 C22.5728375,19.4703402 23.0485545,19.8230909 23.4291339,20.2870763 C23.8097132,20.7510616 24,21.3580471 24,22.1080508 Z M15.9094488,15.9110169 C15.9094488,16.5593253 16.1391053,17.055083 16.5984252,17.3983051 C17.0577451,17.7415271 17.7204681,18.0275412 18.5866142,18.2563559 L18.5866142,13.4322034 C17.746715,13.508475 17.0905535,13.7658876 16.6181102,14.2044492 C16.1456669,14.6430107 15.9094488,15.2118609 15.9094488,15.9110169 Z M19.8464567,24.5487288 C20.6469856,24.4470334 21.2670582,24.1896207 21.7066929,23.7764831 C22.1463277,23.3633454 22.3661417,22.8199186 22.3661417,22.1461864 C22.3661417,21.5868616 22.1496085,21.1514846 21.7165354,20.8400424 C21.2834624,20.5286001 20.6601091,20.2648316 19.8464567,20.0487288 L19.8464567,24.5487288 Z" id="$" fill="#4A494B" fill-rule="nonzero"></path>
                        </g>
                    </g>
                </g>
            </g>
        </g>
    </g>
</svg>