<?xml version="1.0" encoding="UTF-8"?>
<svg width="66px" height="54px" viewBox="0 0 66 54" version="1.1" xmlns="http://www.w3.org/2000/svg" xmlns:xlink="http://www.w3.org/1999/xlink">
    <!-- Generator: sketchtool 55.2 (78181) - https://sketchapp.com -->
    <title>6A41AC17-EB0E-4A0D-99DC-6DA4751DDE72</title>
    <desc>Created with sketchtool.</desc>
    <g id="Website" stroke="none" stroke-width="1" fill="none" fill-rule="evenodd" opacity="0.100000001">
        <g id="Homepage_full" transform="translate(-146.000000, -6700.000000)" fill="#A4A2A7">
            <g id="07" transform="translate(0.000000, 6144.000000)">
                <g id="Group-5" transform="translate(145.000000, 305.000000)">
                    <g id="Group-8" transform="translate(1.000000, 0.000000)">
                        <g id="4" transform="translate(0.000000, 117.000000)">
                            <g id="Group-7">
                                <path d="M29,159.588235 L29,188 L0,188 L0,169.647059 C0,162.823495 1.24538632,156.647086 3.73619632,151.117647 C6.22699387,145.588208 10.378294,139.882382 16.190184,134 L26.6871166,142.294118 C20.7566166,148.294148 17.1390658,154.058796 15.8343558,159.588235 L29,159.588235 Z M66,159.588235 L66,188 L37,188 L37,169.647059 C37,162.823495 38.2453863,156.647086 40.7361963,151.117647 C43.2269939,145.588208 47.378294,139.882382 53.190184,134 L63.6871166,142.294118 C57.7566166,148.294148 54.1390658,154.058796 52.8343558,159.588235 L66,159.588235 Z" id="icon-punctuation"></path>
                            </g>
                        </g>
                    </g>
                </g>
            </g>
        </g>
    </g>
</svg>