<?xml version="1.0" encoding="UTF-8"?>
<svg width="46px" height="40px" viewBox="0 0 46 40" version="1.1" xmlns="http://www.w3.org/2000/svg" xmlns:xlink="http://www.w3.org/1999/xlink">
    <!-- Generator: sketchtool 55.2 (78181) - https://sketchapp.com -->
    <title>CDAC9F7F-5D82-445B-A67E-EB9B45F7495D</title>
    <desc>Created with sketchtool.</desc>
    <g id="Website" stroke="none" stroke-width="1" fill="none" fill-rule="evenodd">
        <g id="Homepage_full" transform="translate(-462.000000, -4741.000000)" stroke="#4A494B">
            <g id="05" transform="translate(0.000000, 4096.000000)">
                <g id="Group-5" transform="translate(146.000000, 237.000000)">
                    <g id="Group-11" transform="translate(0.000000, 227.000000)">
                        <g id="5-icon-ScanID" transform="translate(317.000000, 182.000000)">
                            <rect id="Rectangle" x="8.5" y="11.5" width="28" height="16" rx="3"></rect>
                            <g id="Group-14" transform="translate(28.000000, 16.000000)">
                                <circle id="Oval" cx="3" cy="2" r="2"></circle>
                                <path d="M6,7 C6,5.34314575 4.65685425,4 3,4 C1.34314575,4 0,5.34314575 0,7" id="Shape"></path>
                            </g>
                            <path d="M11.5,17.5 L23.0080566,17.5" id="Line" stroke-linecap="round"></path>
                            <path d="M11.5,20 L18.3947754,20" id="Line-Copy" stroke-linecap="round"></path>
                            <path d="M0,9 L0,0 L0,0 L7,0 M37,0 L44,0 L44,8 M44,31 L44,38 L37,38 M8,38 L0,38 L0,30" id="Shape"></path>
                        </g>
                    </g>
                </g>
            </g>
        </g>
    </g>
</svg>