<?xml version="1.0" encoding="UTF-8"?>
<svg width="94px" height="105px" viewBox="0 0 94 105" version="1.1" xmlns="http://www.w3.org/2000/svg" xmlns:xlink="http://www.w3.org/1999/xlink">
    <!-- Generator: sketchtool 55.2 (78181) - https://sketchapp.com -->
    <title>EB536DE3-5252-4BCD-A1EF-792ADA3291F8</title>
    <desc>Created with sketchtool.</desc>
    <defs>
        <filter x="-60.9%" y="-51.3%" width="221.9%" height="202.6%" filterUnits="objectBoundingBox" id="filter-1">
            <feOffset dx="0" dy="5" in="SourceAlpha" result="shadowOffsetOuter1"></feOffset>
            <feGaussianBlur stdDeviation="7.5" in="shadowOffsetOuter1" result="shadowBlurOuter1"></feGaussianBlur>
            <feColorMatrix values="0 0 0 0 0.689679574   0 0 0 0 0.28639838   0 0 0 0 0.583258148  0 0 0 0.395623907 0" type="matrix" in="shadowBlurOuter1" result="shadowMatrixOuter1"></feColorMatrix>
            <feMerge>
                <feMergeNode in="shadowMatrixOuter1"></feMergeNode>
                <feMergeNode in="SourceGraphic"></feMergeNode>
            </feMerge>
        </filter>
        <linearGradient x1="50%" y1="100%" x2="50%" y2="3.061617e-15%" id="linearGradient-2">
            <stop stop-color="#C861AD" offset="0%"></stop>
            <stop stop-color="#FF7987" offset="100%"></stop>
        </linearGradient>
        <path d="M32,76 C53.3333333,59.3437524 64,44.965374 64,32.8648649 C64,14.7141012 49.673112,0 32,0 C14.326888,0 0,14.7141012 0,32.8648649 C0,44.965374 10.6666667,59.3437524 32,76 Z" id="path-3"></path>
    </defs>
    <g id="Website" stroke="none" stroke-width="1" fill="none" fill-rule="evenodd">
        <g id="Homepage_full" transform="translate(-168.000000, -1664.000000)">
            <g id="02" transform="translate(0.000000, 1024.000000)">
                <g id="content" transform="translate(145.000000, 276.000000)">
                    <g id="ceontent-copy" transform="translate(1.000000, 350.000000)">
                        <g id="02-icon-atm" filter="url(#filter-1)" transform="translate(37.000000, 24.000000)">
                            <mask id="mask-4" fill="white">
                                <use xlink:href="#path-3"></use>
                            </mask>
                            <use id="Oval" fill="url(#linearGradient-2)" xlink:href="#path-3"></use>
                            <rect id="Rectangle" fill="#000000" opacity="0.100000001" mask="url(#mask-4)" x="32" y="-12" width="45" height="107"></rect>
                            <g id="money" mask="url(#mask-4)" fill-rule="nonzero">
                                <g transform="translate(10.000000, 28.000000)">
                                    <path d="M1.11734483,13.4632436 L25.1691034,8.70584752 C25.8821379,8.56307129 26.5476207,9.03887129 26.6901552,9.70491881 L36.1017759,54.6143267 C36.244431,55.3279663 35.7690345,55.9940139 35.1035517,56.1366693 L11.0042414,60.8940653 C10.2912069,61.0368416 9.62572414,60.5610416 9.48318966,59.8949941 L0.119241379,14.9857069 C-0.0234137931,14.2720673 0.404431034,13.6060198 1.11734483,13.4632436 Z" id="Path" fill="#69B157"></path>
                                    <path d="M26.4525172,22.4546436 L24.2659828,11.7506535 C24.218431,11.4176297 23.8381379,11.1797901 23.5053966,11.2273822 L3.16122414,15.2711386 C2.82848276,15.3187307 2.59084483,15.6993465 2.63839655,16.0323703 L4.82493103,26.7363604 C4.87248276,27.0693842 5.25277586,27.3072238 5.58551724,27.2596317 C5.91825862,27.2120396 6.15589655,26.8314238 6.10834483,26.4984 L4.06446552,16.4128653 L23.1252241,12.6069485 L25.1691034,22.6924832 C25.2166552,23.0255069 25.5969483,23.2633465 25.9296897,23.2157545 C26.262431,23.1206911 26.500069,22.7876673 26.4525172,22.4546436 Z" id="Path" fill="#689A4A"></path>
                                    <path d="M7.24910345,5.99430693 L31.6811552,3.61566931 C32.3941897,3.56807723 33.0121207,4.04387723 33.1071034,4.75739604 L38.9536724,52.7114891 C39.0012241,53.4251287 38.5258276,54.0435842 37.8129138,54.0911762 L13.3808621,56.4698139 C12.6678276,56.5174059 12.0498966,56.0416059 11.9549138,55.3280871 L6.10834483,7.37387327 C6.0607931,6.70782574 6.58374138,6.04177822 7.24910345,5.99430693 Z" id="Path" fill="#80CF6D"></path>
                                    <path d="M30.4928448,6.5651703 C30.4452931,6.23214653 30.1601034,5.94671485 29.7798103,5.99430693 L9.15044828,7.99232871 C8.8177069,8.03992079 8.53251724,8.32535248 8.58006897,8.70596832 L9.67327586,19.6003267 C9.72082759,19.9333505 10.0060172,20.2187822 10.3863103,20.1711901 C10.7190517,20.123598 11.0042414,19.8381663 10.9566897,19.4575505 L9.95846552,9.2292396 L29.3044138,7.37387327 L30.3026379,17.6021842 C30.3501897,17.9352079 30.6353793,18.2206396 31.0156724,18.1730475 C31.3484138,18.1254554 31.6336034,17.8400238 31.5860517,17.4594079 C31.5861724,17.4595287 30.4928448,6.5651703 30.4928448,6.5651703 Z" id="Path" fill="#8AC368"></path>
                                    <path d="M15.6625,0 L40.6173793,0 C41.3304138,0 41.9483448,0.570863366 41.9483448,1.33209505 L41.9483448,51.0463703 C41.9483448,51.7600099 41.3779655,52.3784653 40.6173793,52.3784653 L15.6625,52.3784653 C14.9494655,52.3784653 14.3315345,51.807602 14.3315345,51.0463703 L14.3315345,1.33209505 C14.3315345,0.570863366 14.9020345,0 15.6625,0 Z" id="Path" fill="#9AE388"></path>
                                    <path d="M18.6096207,26.1653762 C18.6096207,31.4460436 22.8875862,35.6800475 28.1162241,35.6800475 C33.3448621,35.6800475 37.6228276,31.3984515 37.6228276,26.1653762 C37.6228276,20.932301 33.3448621,16.650705 28.1162241,16.650705 C22.8875862,16.650705 18.6096207,20.932301 18.6096207,26.1653762 Z M38.8111379,40.4374436 C38.4308448,40.4374436 38.0981034,40.7704673 38.0981034,41.1510832 L38.0981034,48.5249564 L18.1342241,48.5249564 L18.1342241,41.1510832 C18.1342241,40.7704673 17.8014828,40.4374436 17.4211897,40.4374436 C17.0408966,40.4374436 16.7081552,40.7704673 16.7081552,41.1510832 L16.7081552,49.238596 C16.7081552,49.6192119 17.0408966,49.9522356 17.4211897,49.9522356 L38.8111379,49.9522356 C39.191431,49.9522356 39.5241724,49.6192119 39.5241724,49.238596 L39.5241724,41.1510832 C39.5241724,40.7704673 39.191431,40.4374436 38.8111379,40.4374436 Z M38.8111379,2.37863762 L17.4213103,2.37863762 C17.0410172,2.37863762 16.7082759,2.71166139 16.7082759,3.09227723 L16.7082759,11.1797901 C16.7082759,11.5604059 17.0410172,11.8934297 17.4213103,11.8934297 C17.8016034,11.8934297 18.1343448,11.5604059 18.1343448,11.1797901 L18.1343448,3.80591683 L38.0982241,3.80591683 L38.0982241,11.1797901 C38.0982241,11.5604059 38.4309655,11.8934297 38.8112586,11.8934297 C39.1915517,11.8934297 39.5242931,11.5604059 39.5242931,11.1797901 L39.5242931,3.09227723 C39.5242931,2.71166139 39.191431,2.37863762 38.8111379,2.37863762 Z M26.6902759,42.340402 C26.6902759,43.149105 27.3082069,43.7675604 28.1162241,43.7675604 C28.9242414,43.7675604 29.5421724,43.149105 29.5421724,42.340402 C29.5421724,41.531699 28.9242414,40.9132436 28.1162241,40.9132436 C27.3082069,40.9132436 26.6902759,41.5792911 26.6902759,42.340402 Z M29.5421724,9.99047129 C29.5421724,9.18176832 28.9242414,8.56331287 28.1162241,8.56331287 C27.3082069,8.56331287 26.6902759,9.18176832 26.6902759,9.99047129 C26.6902759,10.7991743 27.3082069,11.4176297 28.1162241,11.4176297 C28.9242414,11.4176297 29.5421724,10.7991743 29.5421724,9.99047129 Z" id="Shape" fill="#8AC368"></path>
                                </g>
                            </g>
                            <path d="M33.0301207,53.9275366 L33.7431552,53.9275366 C33.8858103,52.7382178 34.5511724,51.8343307 35.2642069,51.4537149 C35.3593103,51.4061228 35.5018448,51.3585307 35.5969483,51.3585307 C35.9772414,51.3585307 36.262431,51.6439624 36.262431,51.9769861 C36.262431,52.2624178 36.1197759,52.4051941 35.9772414,52.5002574 C35.4544138,53.0235287 35.026569,53.6419842 35.026569,54.4984 C35.026569,55.5925347 35.4068621,56.1159267 36.1673276,56.1159267 C38.0211207,56.1159267 37.1655517,51.6915545 40.2076552,51.6915545 C41.3484138,51.6915545 42.2990862,52.357602 42.4892931,53.9275366 L43.2023276,53.9275366 C43.535069,53.9275366 43.8202586,54.1653762 43.8202586,54.4984 C43.8202586,54.8314238 43.535069,55.0692634 43.2023276,55.0692634 L42.4892931,55.0692634 C42.3466379,56.0207426 41.9664655,56.8294455 41.3485345,57.2576535 C41.253431,57.3528376 41.1108966,57.4004297 40.9206897,57.4004297 C40.5403966,57.4004297 40.2552069,57.114998 40.2552069,56.7343822 C40.2552069,56.5441347 40.3503103,56.4013584 40.5403966,56.2111109 C40.9206897,55.830495 41.2058793,55.2120396 41.2058793,54.4985208 C41.2058793,53.4994495 40.7306034,53.1188337 40.2076552,53.1188337 C38.5439483,53.1188337 39.3045345,57.5432059 36.1673276,57.5432059 C34.7888103,57.5432059 33.8856897,56.6869109 33.6956034,55.0693842 L32.982569,55.0693842 C32.6498276,55.0693842 32.3646379,54.8315446 32.3646379,54.4985208 C32.4121897,54.1653762 32.6973793,53.9275366 33.0301207,53.9275366 Z" id="Path" fill="#FFFFFF" fill-rule="nonzero" mask="url(#mask-4)"></path>
                        </g>
                    </g>
                </g>
            </g>
        </g>
    </g>
</svg>